<?xml version="1.0" encoding="utf-8"?>
<!-- Generator: Adobe Illustrator 16.0.0, SVG Export Plug-In . SVG Version: 6.00 Build 0)  -->
<!DOCTYPE svg PUBLIC "-//W3C//DTD SVG 1.1//EN" "http://www.w3.org/Graphics/SVG/1.1/DTD/svg11.dtd">
<svg version="1.1" id="fight_scene_1_" xmlns="http://www.w3.org/2000/svg" xmlns:xlink="http://www.w3.org/1999/xlink" x="0px"
	 y="0px" width="824px" height="291px" viewBox="0 0 824 291" enable-background="new 0 0 824 291" xml:space="preserve">
<g id="Rounded_Rectangle_1">
	<g>
		<path fill-rule="evenodd" clip-rule="evenodd" d="M793,90H243c-5.5,0-10,4.5-10,10v30c0,5.5,4.5,10,10,10h550c5.5,0,10-4.5,10-10
			v-30C803,94.5,798.5,90,793,90z M796,121c0,5.5-4.5,10-10,10H257c-5.5,0-10-4.5-10-10v-11c0-5.5,4.5-10,10-10h529
			c5.5,0,10,4.5,10,10V121z"/>
	</g>
</g>
<g id="Rounded_Rectangle_1_copy">
	<g>
		<path fill-rule="evenodd" clip-rule="evenodd" d="M669.9,132H227.1c-4.4,0-8.1,4.5-8.1,10v30c0,5.5,3.6,10,8.1,10h442.9
			c4.4,0,8.1-4.5,8.1-10v-30C678,136.5,674.4,132,669.9,132z M672.4,163c0,5.5-3.6,10-8.1,10h-426c-4.4,0-8.1-4.5-8.1-10v-11
			c0-5.5,3.6-10,8.1-10h426c4.4,0,8.1,4.5,8.1,10V163z"/>
	</g>
</g>
<g id="Polygon_1">
	<g>
		<polygon points="299.3,178.5 239.6,133.7 289.8,78.4 215.2,82.5 218.2,7.9 163.7,58.9 118,-0.1 109,74 36.1,58.2 76.9,120.7 
			10.8,155.4 82.3,177.1 54,246.2 122.6,216.9 145.4,288 179.1,221.4 242.3,261.3 225.3,188.5 		"/>
	</g>
</g>
<g id="Polygon_2">
	<g>
		<polygon fill="#0C00FF" points="263.5,165 217.5,132.3 254.4,89.5 198.1,94 199,37.6 158.7,77.2 123.1,33.4 117.7,89.6 62.3,79 
			94.3,125.5 45,153.1 99.5,168.1 79.4,220.8 130.7,197.4 149.3,250.7 173.5,199.7 222,228.6 207.8,174 		"/>
	</g>
</g>
</svg>
